<?xml version="1.0" standalone="no"?>
<!DOCTYPE svg PUBLIC "-//W3C//DTD SVG 20010904//EN"
 "http://www.w3.org/TR/2001/REC-SVG-20010904/DTD/svg10.dtd">
<svg version="1.0" xmlns="http://www.w3.org/2000/svg"
 width="225.000000pt" height="225.000000pt" viewBox="0 0 225.000000 225.000000"
 preserveAspectRatio="xMidYMid meet">

<g transform="translate(0.000000,225.000000) scale(0.100000,-0.100000)"
fill="#000000" stroke="none">
<path d="M156 2238 c-57 -15 -129 -90 -144 -150 -17 -67 -17 -1859 0 -1926 16
-64 86 -134 150 -150 67 -17 1859 -17 1926 0 64 16 134 86 150 150 17 67 17
1859 0 1926 -16 64 -86 134 -150 150 -62 16 -1873 15 -1932 0z m999 -771 c63
-25 96 -52 120 -101 39 -79 36 -86 -37 -86 -61 0 -63 1 -78 33 -19 41 -52 57
-116 57 -63 0 -104 -27 -104 -70 0 -15 7 -33 15 -40 8 -6 72 -27 142 -46 182
-49 218 -80 218 -188 0 -114 -71 -180 -206 -192 -84 -8 -167 10 -218 46 -45
33 -66 67 -76 123 l-7 37 65 0 c63 0 65 -1 76 -30 14 -42 68 -64 139 -57 73 8
102 28 102 72 0 45 -22 59 -130 80 -185 37 -231 71 -238 176 -7 91 44 161 136
189 40 12 163 10 197 -3z m-495 -304 l107 -303 -72 0 -72 0 -18 60 -18 60
-113 0 -112 0 -19 -57 -20 -58 -70 -3 -71 -3 38 103 c20 57 70 194 110 306
l73 203 75 -3 75 -3 107 -302z m985 82 c32 -124 61 -225 64 -225 4 0 29 101
56 225 l50 225 93 0 92 0 0 -305 0 -305 -60 0 -60 0 -1 243 -1 242 -56 -242
-56 -243 -65 0 -66 0 -55 243 -55 242 -3 -242 -2 -243 -60 0 -60 0 0 305 0
305 94 0 93 0 58 -225z"/>
<path d="M441 1218 c-19 -57 -36 -109 -38 -115 -4 -10 14 -13 72 -13 61 0 76
3 72 13 -3 8 -19 60 -37 115 -17 56 -32 102 -33 102 -2 0 -18 -46 -36 -102z"/>
</g>
</svg>
